<svg width="40" height="21" viewBox="0 0 40 21" fill="none" xmlns="http://www.w3.org/2000/svg">
<path d="M1.24997 3.25001H38.7501C39.4401 3.25001 40.0001 2.68996 40.0001 2.00004C40.0001 1.31 39.44 0.750061 38.7501 0.750061H1.24997C0.559942 0.750061 0 1.31011 0 2.00004C0 2.68996 0.560046 3.25001 1.24997 3.25001Z" fill="#454545"/>
<path d="M38.7501 9.50009H1.24997C0.559942 9.50009 0 10.0601 0 10.7501C0 11.44 0.560046 12 1.24997 12H38.7501C39.4401 12 40.0001 11.44 40.0001 10.7501C40.0001 10.0601 39.4401 9.50009 38.7501 9.50009Z" fill="#454545"/>
<path d="M38.7501 18.2501H13.75C13.0599 18.2501 12.5 18.8101 12.5 19.5001C12.5 20.1901 13.06 20.75 13.75 20.75H38.7501C39.4401 20.75 40 20.19 40 19.5001C40.0001 18.81 39.4401 18.2501 38.7501 18.2501Z" fill="#454545"/>
</svg>
